<?xml version="1.0" encoding="UTF-8" standalone="no"?><!-- Generator: Gravit.io --><svg xmlns="http://www.w3.org/2000/svg" xmlns:xlink="http://www.w3.org/1999/xlink" style="isolation:isolate" viewBox="0 0 20 20" width="20pt" height="20pt"><defs><clipPath id="_clipPath_h4Odbqw7QSs4XuWJ05kMFpp8BVgKkL1J"><rect width="20" height="20"/></clipPath></defs><g clip-path="url(#_clipPath_h4Odbqw7QSs4XuWJ05kMFpp8BVgKkL1J)"><path d=" M 14.69 3.56 L 5.31 3.56 C 4.344 3.56 3.56 4.344 3.56 5.31 L 3.56 14.69 C 3.56 15.154 3.744 15.599 4.073 15.927 C 4.401 16.256 4.846 16.44 5.31 16.44 L 14.69 16.44 C 15.656 16.44 16.44 15.656 16.44 14.69 L 16.44 5.31 C 16.44 4.846 16.256 4.401 15.927 4.073 C 15.599 3.744 15.154 3.56 14.69 3.56 Z  M 10 14.1 C 7.736 14.1 5.9 12.264 5.9 10 C 5.9 7.736 7.736 5.9 10 5.9 C 12.264 5.9 14.1 7.736 14.1 10 C 14.095 12.262 12.262 14.095 10 14.1 L 10 14.1 Z  M 14.1 7.1 C 13.454 7.1 12.93 6.576 12.93 5.93 C 12.93 5.284 13.454 4.76 14.1 4.76 C 14.746 4.76 15.27 5.284 15.27 5.93 C 15.27 6.576 14.746 7.1 14.1 7.1 Z " fill="rgb(255,204,0)"/><path d=" M 10 7.07 C 8.382 7.07 7.07 8.382 7.07 10 C 7.07 11.618 8.382 12.93 10 12.93 C 11.618 12.93 12.93 11.618 12.93 10 C 12.925 8.384 11.616 7.075 10 7.07 L 10 7.07 Z " fill="rgb(255,204,0)"/><path d=" M 17 0 L 3 0 C 1.343 0 0 1.343 0 3 L 0 17 C 0 18.657 1.343 20 3 20 L 17 20 C 18.657 20 20 18.657 20 17 L 20 3 C 20 1.343 18.657 0 17 0 Z  M 17.59 14.69 C 17.585 16.306 16.276 17.615 14.66 17.62 L 5.31 17.62 C 3.694 17.615 2.385 16.306 2.38 14.69 L 2.38 5.31 C 2.385 3.694 3.694 2.385 5.31 2.38 L 14.69 2.38 C 16.306 2.385 17.615 3.694 17.62 5.31 L 17.59 14.69 Z " fill="rgb(255,204,0)"/></g></svg>